<svg width="512" height="512" viewBox="0 0 512 512" fill="none" xmlns="http://www.w3.org/2000/svg">
<g clip-path="url(#clip0_327_34)">
<path d="M98.1059 226.892C126.23 231.62 141.273 238.991 141.273 238.991C141.273 238.991 117.727 220.737 100.068 215.118C71.2901 205.961 39.569 205.961 39.569 205.961V390.729C39.569 390.729 86.0061 372.94 141.273 374.705C193.054 376.359 221.066 390.729 221.066 390.729C221.066 390.729 186.402 363.631 141.273 358.681C86.6601 352.692 58.8633 364.241 58.8633 364.241V224.275C58.8633 224.275 69.982 222.164 98.1059 226.892Z" fill="#FBBF24"/>
<path d="M19.9217 270.152C19.9217 270.152 29.611 267.95 57.8827 271.694V259.267C28.8028 251.119 0 252.523 0 252.523L6.44833 437.179C6.44833 437.179 64.423 403.159 134.733 403.159C194.905 403.159 236.764 414.278 236.764 414.278C236.764 414.278 186.221 394.104 140.946 390.732C73.5799 385.715 24.8064 410.033 24.8064 410.033L19.9217 270.152Z" fill="#FBBF24"/>
<path d="M413.874 226.892C385.75 231.62 370.707 238.991 370.707 238.991C370.707 238.991 394.252 220.738 411.912 215.118C440.689 205.961 472.411 205.961 472.411 205.961V390.73C472.411 390.73 425.973 372.941 370.707 374.706C318.926 376.359 290.914 390.73 290.914 390.73C290.914 390.73 325.578 363.631 370.707 358.682C425.319 352.692 453.116 364.241 453.116 364.241V224.275C453.116 224.275 441.997 222.164 413.874 226.892Z" fill="#FBBF24"/>
<path d="M492.059 270.152C492.059 270.152 482.37 267.95 454.098 271.694V259.267C483.178 251.12 511.981 252.523 511.981 252.523L505.532 437.179C505.532 437.179 447.558 403.159 377.248 403.159C317.076 403.159 275.217 414.278 275.217 414.278C275.217 414.278 325.76 394.104 371.034 390.732C438.401 385.715 487.174 410.033 487.174 410.033L492.059 270.152Z" fill="#FBBF24"/>
<path d="M98.1059 226.892C126.23 231.62 141.273 238.991 141.273 238.991C141.273 238.991 117.727 220.737 100.068 215.118C71.2901 205.961 39.569 205.961 39.569 205.961V390.729C39.569 390.729 86.0061 372.94 141.273 374.705C193.054 376.359 221.066 390.729 221.066 390.729C221.066 390.729 186.402 363.631 141.273 358.681C86.6601 352.692 58.8633 364.241 58.8633 364.241V224.275C58.8633 224.275 69.982 222.164 98.1059 226.892Z" stroke="#FBBF24" stroke-width="0.654043"/>
<path d="M19.9217 270.152C19.9217 270.152 29.611 267.95 57.8827 271.694V259.267C28.8028 251.119 0 252.523 0 252.523L6.44833 437.179C6.44833 437.179 64.423 403.159 134.733 403.159C194.905 403.159 236.764 414.278 236.764 414.278C236.764 414.278 186.221 394.104 140.946 390.732C73.5799 385.715 24.8064 410.033 24.8064 410.033L19.9217 270.152Z" stroke="#FBBF24" stroke-width="0.654043"/>
<path d="M413.874 226.892C385.75 231.62 370.707 238.991 370.707 238.991C370.707 238.991 394.252 220.738 411.912 215.118C440.689 205.961 472.411 205.961 472.411 205.961V390.73C472.411 390.73 425.973 372.941 370.707 374.706C318.926 376.359 290.914 390.73 290.914 390.73C290.914 390.73 325.578 363.631 370.707 358.682C425.319 352.692 453.116 364.241 453.116 364.241V224.275C453.116 224.275 441.997 222.164 413.874 226.892Z" stroke="#FBBF24" stroke-width="0.654043"/>
<path d="M492.059 270.152C492.059 270.152 482.37 267.95 454.098 271.694V259.267C483.178 251.12 511.981 252.523 511.981 252.523L505.532 437.179C505.532 437.179 447.558 403.159 377.248 403.159C317.076 403.159 275.217 414.278 275.217 414.278C275.217 414.278 325.76 394.104 371.034 390.732C438.401 385.715 487.174 410.033 487.174 410.033L492.059 270.152Z" stroke="#FBBF24" stroke-width="0.654043"/>
<path d="M401.825 278.275C401.481 278.304 401.014 278.345 400.432 278.399C399.079 278.526 397.105 278.727 394.616 279.021C389.637 279.611 382.595 280.577 374.336 282.086C357.825 285.102 336.418 290.292 316.901 298.99C290.157 310.908 274.316 325.887 265.156 337.915C260.577 343.927 257.671 349.197 255.907 352.974C255.556 353.724 255.251 354.416 254.987 355.043V268.903L401.825 207.825V278.275ZM253.063 268.902V355.042C252.799 354.416 252.493 353.724 252.143 352.974C250.379 349.197 247.473 343.927 242.895 337.915C233.735 325.887 217.892 310.908 191.149 298.99C171.632 290.293 150.225 285.102 133.713 282.086C125.454 280.577 118.413 279.611 113.434 279.021C110.945 278.727 108.971 278.526 107.619 278.399C107.036 278.345 106.569 278.304 106.225 278.275V207.825L253.063 268.902ZM78.4478 184.962V228.143C78.4478 232.552 79.6332 238.021 80.7983 242.344C81.3834 244.514 81.9681 246.414 82.4067 247.771C82.6261 248.449 82.8096 248.992 82.938 249.366C83.0022 249.553 83.0528 249.699 83.0874 249.798C83.0908 249.807 83.0941 249.817 83.0972 249.825V263.314H65.1577V249.815C65.1613 249.804 65.1654 249.793 65.1694 249.78C65.2009 249.683 65.2468 249.538 65.3052 249.353C65.4219 248.981 65.5883 248.442 65.7876 247.769C66.1863 246.421 66.7179 244.534 67.2495 242.372C68.3089 238.063 69.3843 232.602 69.3843 228.143V181.214L78.4478 184.962ZM482.113 163.188L254.637 256.185L79.9497 183.957V160.918H67.8823V178.968L29.7192 163.189L254.636 74.8057L482.113 163.188ZM78.4478 162.419V183.336L69.3843 179.589V162.419H78.4478Z" fill="#4C1D95" stroke="#4C1D95" stroke-width="1.50141"/>
</g>
<defs>
<clipPath id="clip0_327_34">
<rect width="512" height="512" fill="white"/>
</clipPath>
</defs>
</svg>
